<svg width="127" height="123" viewBox="0 0 127 123" fill="none" xmlns="http://www.w3.org/2000/svg">
<g filter="url(#filter0_d_810_629)">
<g clip-path="url(#clip0_810_629)">
<rect x="4" width="119" height="115" rx="25" fill="#06222F"/>
<path d="M53.375 81.9688C53.25 79.7188 53.0312 76.7188 52.7188 72.9688C52.4688 69.1562 52.1562 65.2188 51.7812 61.1562C51.4688 57.0938 51.125 53.25 50.75 49.625C50.375 46 50.0625 43.1875 49.8125 41.1875C49.8125 40.375 50.1875 39.8438 50.9375 39.5938C51.6875 39.3438 52.4062 39.2188 53.0938 39.2188C53.9688 39.2188 54.875 39.4688 55.8125 39.9688C56.8125 40.4688 57.4375 41.1562 57.6875 42.0312C57.6875 42.2812 57.7188 42.75 57.7812 43.4375C57.8438 44.0625 57.875 44.7188 57.875 45.4062C57.9375 46.0938 58 46.7812 58.0625 47.4688C58.125 48.0938 58.1562 48.5312 58.1562 48.7812C58.1562 49.1562 58.1562 49.4375 58.1562 49.625C58.1562 49.8125 58.1562 50 58.1562 50.1875C58.1562 50.3125 58.1875 50.4688 58.25 50.6562C58.3125 50.8438 58.4062 51.1562 58.5312 51.5938C58.6562 51.4688 58.7812 51.3125 58.9062 51.125C59.0938 50.9375 59.2188 50.8125 59.2812 50.75C60.2812 49.3125 61.25 48.0625 62.1875 47C63.125 45.875 64.0938 44.8438 65.0938 43.9062C66.0938 42.9062 67.1875 41.875 68.375 40.8125C69.625 39.6875 71.0625 38.4062 72.6875 36.9688C73.0625 36.6562 73.3438 36.4375 73.5312 36.3125C73.7188 36.125 73.875 36 74 35.9375C74.1875 35.8125 74.375 35.75 74.5625 35.75C74.75 35.6875 75 35.6562 75.3125 35.6562C76.375 35.6562 77.4375 36.0312 78.5 36.7812C79.625 37.4688 80.1875 38.4375 80.1875 39.6875C80.1875 40.125 80.0312 40.5938 79.7188 41.0938C79.4062 41.5312 79.0312 41.9688 78.5938 42.4062C78.1562 42.7812 77.6875 43.125 77.1875 43.4375C76.75 43.75 76.3438 43.9688 75.9688 44.0938C74.3438 45.5312 72.625 47.1875 70.8125 49.0625C69 50.875 67.3125 52.8438 65.75 54.9688C64.1875 57.0938 62.9062 59.3125 61.9062 61.625C60.9062 63.9375 60.4062 66.25 60.4062 68.5625C60.4062 70.6875 60.5625 72.7812 60.875 74.8438C61.1875 76.9062 61.3438 79 61.3438 81.125V84.4062C60.8438 84.9062 60.4062 85.3125 60.0312 85.625C59.6562 85.9375 59.125 86.0938 58.4375 86.0938C57.375 86.0938 56.3438 85.6562 55.3438 84.7812C54.3438 83.8438 53.6875 82.9062 53.375 81.9688Z" fill="#7699A6"/>
</g>
</g>
<defs>
<filter id="filter0_d_810_629" x="0" y="0" width="127" height="123" filterUnits="userSpaceOnUse" color-interpolation-filters="sRGB">
<feFlood flood-opacity="0" result="BackgroundImageFix"/>
<feColorMatrix in="SourceAlpha" type="matrix" values="0 0 0 0 0 0 0 0 0 0 0 0 0 0 0 0 0 0 127 0" result="hardAlpha"/>
<feOffset dy="4"/>
<feGaussianBlur stdDeviation="2"/>
<feComposite in2="hardAlpha" operator="out"/>
<feColorMatrix type="matrix" values="0 0 0 0 0 0 0 0 0 0 0 0 0 0 0 0 0 0 0.25 0"/>
<feBlend mode="normal" in2="BackgroundImageFix" result="effect1_dropShadow_810_629"/>
<feBlend mode="normal" in="SourceGraphic" in2="effect1_dropShadow_810_629" result="shape"/>
</filter>
<clipPath id="clip0_810_629">
<rect x="4" width="119" height="115" rx="25" fill="white"/>
</clipPath>
</defs>
</svg>
