<svg width="26" height="26" viewBox="0 0 26 26" fill="none" xmlns="http://www.w3.org/2000/svg">
<path d="M25.3379 11.4759L24.7503 11.9833C24.5637 12.1442 24.3209 12.2244 24.0751 12.2062C23.8294 12.188 23.601 12.073 23.4401 11.8864C23.2792 11.6998 23.199 11.4569 23.2172 11.2112C23.2354 10.9654 23.3504 10.737 23.537 10.5761L24.1245 10.0687C24.1385 10.0571 24.1512 10.0467 24.1396 10.0107C24.128 9.97466 24.1187 9.97931 24.1001 9.97699L23.1399 9.89919C23.0156 9.89305 22.8939 9.86201 22.7818 9.80789C22.6698 9.75378 22.5697 9.6777 22.4876 9.58418C22.4056 9.49066 22.3431 9.3816 22.304 9.26347C22.2649 9.14535 22.2499 9.02057 22.2599 8.89654C22.27 8.77251 22.3048 8.65176 22.3624 8.54146C22.42 8.43116 22.4992 8.33356 22.5953 8.25446C22.6913 8.17535 22.8023 8.11635 22.9216 8.08096C23.0409 8.04557 23.1661 8.03451 23.2897 8.04844L24.2499 8.12507C24.6247 8.15677 24.9819 8.29837 25.2766 8.53215C25.5713 8.76592 25.7904 9.08146 25.9066 9.43924C26.0228 9.79702 26.0308 10.1811 25.9296 10.5434C25.8284 10.9057 25.6226 11.2301 25.3379 11.4759ZM18.1728 15.8637L18.6466 17.863C18.6947 18.0665 18.81 18.2478 18.9739 18.3776C19.1379 18.5074 19.3408 18.5781 19.5499 18.5783C19.6222 18.5783 19.6943 18.5697 19.7647 18.5527C19.8834 18.5246 19.9954 18.4734 20.0943 18.4019C20.1932 18.3305 20.2771 18.2403 20.3411 18.1365C20.4052 18.0327 20.4481 17.9172 20.4676 17.7968C20.487 17.6764 20.4825 17.5533 20.4544 17.4346L20.106 15.9844L21.0349 15.1879C21.2215 15.027 21.3366 14.7986 21.3547 14.5528C21.3729 14.3071 21.2927 14.0642 21.1318 13.8776C21.0522 13.7852 20.9551 13.7094 20.8461 13.6545C20.7372 13.5997 20.6185 13.5668 20.4968 13.5578C20.2511 13.5396 20.0082 13.6198 19.8216 13.7807L18.4701 14.9418C18.3405 15.0532 18.2442 15.1982 18.1918 15.3609C18.1393 15.5235 18.1328 15.6975 18.1728 15.8637ZM21.5551 22.0789C21.4982 21.8392 21.3485 21.6318 21.1388 21.5025C20.9291 21.3732 20.6767 21.3324 20.4369 21.3892C20.1972 21.446 19.9899 21.5958 19.8605 21.8055C19.7312 22.0151 19.6904 22.2676 19.7473 22.5073L19.9005 23.1552C19.905 23.1653 19.9054 23.1767 19.9018 23.187C19.8981 23.1974 19.8906 23.206 19.8808 23.211C19.8599 23.2272 19.8541 23.2237 19.8367 23.211L19.0564 22.7314C18.8466 22.6024 18.594 22.562 18.3544 22.6192C18.1148 22.6763 17.9077 22.8264 17.7787 23.0362C17.6496 23.2461 17.6093 23.4986 17.6664 23.7382C17.7236 23.9779 17.8736 24.185 18.0834 24.314L18.8637 24.7935C19.1846 24.9884 19.556 25.084 19.9312 25.0684C20.3063 25.0528 20.6685 24.9266 20.9721 24.7058C21.2758 24.4849 21.5073 24.1792 21.6377 23.8271C21.7681 23.4749 21.7914 23.0921 21.7048 22.7268L21.5551 22.0789ZM18.4956 9.52533L16.6797 9.37787C16.5097 9.36347 16.347 9.30255 16.2094 9.20179C16.0717 9.10102 15.9645 8.9643 15.8994 8.80662L13.9256 4.03691V19.5779L14.7883 20.1086C14.8922 20.1724 14.9825 20.2562 15.0541 20.355C15.1256 20.4538 15.177 20.5657 15.2053 20.6843C15.2336 20.803 15.2383 20.926 15.219 21.0465C15.1998 21.1669 15.157 21.2824 15.0931 21.3863C15.0292 21.4902 14.9455 21.5805 14.8467 21.6521C14.7479 21.7237 14.636 21.775 14.5173 21.8033C14.3987 21.8316 14.2756 21.8363 14.1551 21.817C14.0347 21.7978 13.9192 21.755 13.8153 21.6911L12.9967 21.1872L7.12982 24.7958C6.8087 24.991 6.43701 25.0868 6.06156 25.0711C5.68611 25.0555 5.32368 24.9291 5.01991 24.7079C4.71615 24.4867 4.48462 24.1805 4.3545 23.828C4.22438 23.4755 4.20147 23.0923 4.28866 22.7268L5.88631 15.9844L0.661452 11.4759C0.377334 11.2304 0.171854 10.9066 0.070675 10.5449C-0.0305042 10.1833 -0.0228989 9.79985 0.0925411 9.4425C0.207981 9.08516 0.42614 8.76975 0.719772 8.53565C1.0134 8.30155 1.3695 8.15915 1.74358 8.12623L8.59394 7.57355L11.2366 1.17833C11.3796 0.829798 11.623 0.531669 11.936 0.32185C12.2489 0.112031 12.6171 0 12.9938 0C13.3706 0 13.7388 0.112031 14.0517 0.32185C14.3647 0.531669 14.6081 0.829798 14.7511 1.17833L17.3926 7.57355L18.6419 7.67457C18.7639 7.6844 18.8827 7.71817 18.9917 7.77393C19.1006 7.8297 19.1975 7.90637 19.2768 7.99958C19.3561 8.09279 19.4162 8.2007 19.4538 8.31716C19.4914 8.43362 19.5057 8.55634 19.4959 8.67832C19.4861 8.8003 19.4523 8.91915 19.3965 9.02808C19.3408 9.13701 19.2641 9.23389 19.1709 9.31319C19.0777 9.39249 18.9698 9.45265 18.8533 9.49025C18.7368 9.52784 18.6141 9.54213 18.4921 9.53229L18.4956 9.52533ZM12.0679 19.5779V4.03691L10.0941 8.80662C10.0287 8.96479 9.92096 9.10185 9.78266 9.20265C9.64437 9.30345 9.48091 9.36409 9.31033 9.37787L1.88871 9.97699C1.8713 9.97699 1.86085 9.97699 1.8504 10.0107C1.84506 10.0206 1.84366 10.0322 1.84645 10.0432C1.84924 10.0542 1.85604 10.0637 1.86549 10.0699L7.51994 14.9464C7.64889 15.0575 7.74482 15.202 7.79724 15.364C7.84965 15.5259 7.85655 15.6992 7.81718 15.8648L6.08949 23.1564C6.08502 23.1664 6.08458 23.1778 6.08825 23.1882C6.09192 23.1986 6.09943 23.2071 6.10923 23.2121C6.13013 23.2284 6.13594 23.2249 6.15335 23.2121L12.0679 19.5779Z" fill="#71C2E4"/>
</svg>